grf
version=1
nRows=24
nColumns=19
inDegrees=no
endheader
time	ground_force_1_vx	ground_force_1_vy	ground_force_1_vz	ground_force_1_px	ground_force_1_py	ground_force_1_pz	ground_moment_1_mx	ground_moment_1_my	ground_moment_1_mz	ground_force_2_vx	ground_force_2_vy	ground_force_2_vz	ground_force_2_px	ground_force_2_py	ground_force_2_pz	ground_moment_2_mx	ground_moment_2_my	ground_moment_2_mz
      3.51000000	      7.71105003	    486.11492920	    -33.03549957	    100.95594975	      0.00000000	  -1049.90476448	      0.00000000	   2743.98871262	      0.00000000	    -39.27285385	    412.10220337	     29.59078407	    252.03173648	      0.00000000	  -1407.44317344	      0.00000000	  -3198.59200889	      0.00000000
      3.52000000	      8.15906811	    492.68041992	    -33.71596909	    101.10810754	      0.00000000	  -1048.69837858	      0.00000000	   2538.10012318	      0.00000000	    -41.81256485	    404.96914673	     29.87423706	    259.02161344	      0.00000000	  -1402.17536405	      0.00000000	  -3187.57175293	      0.00000000
      3.53000000	      8.25249100	    496.54785156	    -30.89691353	     98.24995317	      0.00000000	  -1048.96887120	      0.00000000	   1856.08539191	      0.00000000	    -42.86086273	    396.38009644	     29.63624191	    263.93353640	      0.00000000	  -1400.76480629	      0.00000000	  -3413.01799422	      0.00000000
      3.54000000	     12.70717716	    497.02896118	    -30.76612473	     97.11623318	      0.00000000	  -1046.71474684	      0.00000000	   1717.29351205	      0.00000000	    -43.14329910	    400.03469849	     28.11313248	    264.03949502	      0.00000000	  -1396.22178054	      0.00000000	  -3819.72383868	      0.00000000
      3.55000000	     11.64864159	    488.89657593	    -28.98411179	     92.12289344	      0.00000000	  -1049.88366435	      0.00000000	   1492.76165861	      0.00000000	    -42.78107071	    388.10943604	     25.74358559	    269.34371975	      0.00000000	  -1399.18545139	      0.00000000	  -4273.05342504	      0.00000000
      3.56000000	     15.41270447	    488.27764893	    -27.51687431	     90.70595646	      0.00000000	  -1053.95867876	     -0.00000000	   1061.72660121	      0.00000000	    -44.19063187	    375.99929810	     26.10778046	    272.00330840	      0.00000000	  -1395.24205428	      0.00000000	  -4178.65867542	     -0.00000000
      3.57000000	     18.85100174	    484.77691650	    -27.34147263	     88.11813471	      0.00000000	  -1053.84785747	      0.00000000	    922.18115100	      0.00000000	    -43.78795624	    362.92474365	     26.27064705	    272.85431923	      0.00000000	  -1389.84644886	      0.00000000	  -4109.61794655	      0.00000000
      3.58000000	     21.76802063	    474.53707886	    -26.31862640	     85.76150727	      0.00000000	  -1056.49560096	      0.00000000	    419.56778432	      0.00000000	    -44.02718735	    368.50610352	     25.14542389	    273.43332007	      0.00000000	  -1394.47347955	      0.00000000	  -4159.54317172	      0.00000000
      3.59000000	     25.61789703	    468.15563965	    -27.26995850	     82.71362386	      0.00000000	  -1057.21656340	      0.00000000	    150.06119872	      0.00000000	    -42.37440491	    366.59597778	     27.11697388	    275.59573139	      0.00000000	  -1395.99432430	      0.00000000	  -3983.06304043	      0.00000000
      3.60000000	     29.42486572	    471.19549561	    -27.21598816	     84.63074427	      0.00000000	  -1056.66264036	     -0.00000000	   -230.30061005	      0.00000000	    -39.71638870	    358.29714966	     26.79516411	    275.03214796	      0.00000000	  -1391.03299127	      0.00000000	  -3886.90915221	      0.00000000
      3.61000000	     28.41152000	    460.17132568	    -27.33274078	     79.30259401	      0.00000000	  -1057.23344723	      0.00000000	   -256.52853108	      0.00000000	    -37.42211151	    367.54022217	     27.23851395	    273.86446663	      0.00000000	  -1394.74234591	      0.00000000	  -4338.68657773	      0.00000000
      3.62000000	     28.65336800	    463.37387085	    -26.52148247	     80.90486040	      0.00000000	  -1055.22976857	     -0.00000000	   -621.34930548	      0.00000000	    -35.73136139	    378.70285034	     26.51679993	    275.54124214	      0.00000000	  -1401.05081280	      0.00000000	  -4896.57003857	     -0.00000000
      3.63000000	     29.33486557	    454.06875610	    -25.02320099	     80.82512641	      0.00000000	  -1055.17085865	      0.00000000	   -781.69939377	      0.00000000	    -33.19358063	    371.81900024	     26.96078682	    269.80923910	      0.00000000	  -1394.26169407	      0.00000000	  -4929.00858598	      0.00000000
      3.64000000	     31.36459923	    449.59515381	    -24.53747368	     79.34734096	      0.00000000	  -1059.30624360	      0.00000000	   -837.66157357	      0.00000000	    -32.83121872	    365.12524414	     23.42183113	    270.81883942	      0.00000000	  -1393.81722254	      0.00000000	  -5139.25307283	      0.00000000
      3.65000000	     32.45463181	    451.02938843	    -25.25927925	     81.33551553	      0.00000000	  -1057.59015445	      0.00000000	   -767.97972164	      0.00000000	    -32.02753067	    363.83511353	     21.69357300	    267.91655246	      0.00000000	  -1393.60654392	      0.00000000	  -5629.52330940	      0.00000000
      3.66000000	     33.17865372	    454.25115967	    -26.99059677	     83.51169406	      0.00000000	  -1048.32343283	      0.00000000	   -701.28746188	      0.00000000	    -33.95999146	    369.87969971	     19.60292244	    262.21030942	      0.00000000	  -1401.12762237	      0.00000000	  -6046.14393549	      0.00000000
      3.67000000	     34.59786987	    427.33151245	    -25.77487755	     79.94556231	      0.00000000	  -1054.62981230	     -0.00000000	   -821.95977229	      0.00000000	    -31.09367561	    357.43255615	     19.15936279	    266.25794251	      0.00000000	  -1397.40587943	      0.00000000	  -5022.68705263	      0.00000000
      3.68000000	     34.71708298	    434.69387817	    -26.53801727	     81.72390042	      0.00000000	  -1054.34927920	     -0.00000000	   -773.96003369	      0.00000000	    -28.22763252	    357.72372437	     19.63884354	    259.95400000	      0.00000000	  -1405.12655253	      0.00000000	  -4348.95364107	      0.00000000
      3.69000000	     33.55036545	    429.37683105	    -27.99496269	     85.63242813	      0.00000000	  -1052.52720141	     -0.00000000	   -897.65996721	      0.00000000	    -22.05918884	    369.77523804	     24.74160004	    248.15634035	      0.00000000	  -1402.03696935	      0.00000000	  -3206.98741189	      0.00000000
      3.70000000	     30.57225418	    440.40252686	    -34.01210785	     90.56264237	      0.00000000	  -1048.34330970	      0.00000000	   -869.73335482	      0.00000000	    -16.33827591	    413.38119507	     35.47237396	    233.58359875	      0.00000000	  -1404.63943362	      0.00000000	  -2564.54812292	      0.00000000
      3.71000000	     21.83337021	    441.30413818	    -44.14435959	     97.92829411	      0.00000000	  -1043.53690462	      0.00000000	   -205.95715722	      0.00000000	    -12.03078461	    439.92565918	     40.41639709	    222.77884836	      0.00000000	  -1409.43433158	      0.00000000	  -2973.96468805	      0.00000000
      3.72000000	     11.66461849	    436.62789917	    -43.28201294	     99.72737666	      0.00000000	  -1049.09683260	      0.00000000	    265.10016861	      0.00000000	    -15.12860775	    439.08120728	     38.16510773	    214.51748570	      0.00000000	  -1403.17165173	      0.00000000	  -2889.46490174	      0.00000000
      3.73000000	     11.00510883	    445.22265625	    -41.15419006	    109.26124374	      0.00000000	  -1038.61668308	      0.00000000	    287.37411799	      0.00000000	    -17.66597366	    429.15301514	     33.90369415	    208.14895361	      0.00000000	  -1403.49185286	      0.00000000	  -3248.40603773	      0.00000000
      3.74000000	      9.87711430	    448.23083496	    -43.70519257	    114.58939221	      0.00000000	  -1036.59780626	      0.00000000	    502.50469326	      0.00000000	    -16.41544342	    427.49127197	     33.34272766	    200.36150312	      0.00000000	  -1401.04414081	      0.00000000	  -3438.84709342	      0.00000000
